<svg xmlns="http://www.w3.org/2000/svg" viewBox="0 0 64 64" role="img" aria-label="Ruipérez Studio">
  <defs>
    <linearGradient id="bg" x1="0" y1="0" x2="64" y2="64" gradientUnits="userSpaceOnUse">
      <stop offset="0" stop-color="#16142b"/>
      <stop offset="1" stop-color="#06060e"/>
    </linearGradient>
    <linearGradient id="fg" x1="14" y1="12" x2="46" y2="52" gradientUnits="userSpaceOnUse">
      <stop offset="0" stop-color="#a3e635"/>
      <stop offset="1" stop-color="#4f46e5"/>
    </linearGradient>
  </defs>
  <rect width="64" height="64" rx="14" fill="url(#bg)"/>
  <rect x="1" y="1" width="62" height="62" rx="13" fill="none" stroke="rgba(163,230,53,.2)" stroke-width="1.2"/>
  <path d="M19 47V17h13c3.8 0 6.7.9 8.4 2.7 1.7 1.7 2.6 3.9 2.6 6.3 0 2-.6 3.8-1.7 5.2-1.1 1.4-2.7 2.3-4.6 2.8L42 47h-6.2l-5.2-12.5H25V47Zm6-16.5h5.8c1.6 0 2.8-.4 3.6-1.1.8-.7 1.2-1.7 1.2-2.9s-.4-2.2-1.2-2.9c-.8-.7-2-1.1-3.6-1.1H25Z" fill="url(#fg)"/>
  <circle cx="47" cy="17" r="3.2" fill="#a3e635"/>
</svg>