<svg xmlns="http://www.w3.org/2000/svg" viewBox="0 0 64 64" role="img" aria-label="Ruipérez">
  <defs>
    <linearGradient id="bg" x1="0" y1="0" x2="64" y2="64" gradientUnits="userSpaceOnUse">
      <stop offset="0" stop-color="#16142b"/>
      <stop offset="1" stop-color="#06060e"/>
    </linearGradient>
    <linearGradient id="fg" x1="14" y1="12" x2="46" y2="52" gradientUnits="userSpaceOnUse">
      <stop offset="0" stop-color="#a3e635"/>
      <stop offset="1" stop-color="#6d65f0"/>
    </linearGradient>
  </defs>
  <rect width="64" height="64" rx="14" fill="url(#bg)"/>
  <rect x="1" y="1" width="62" height="62" rx="13" fill="none" stroke="rgba(244,244,252,.08)" stroke-width="1.5"/>
  <path d="M19 47V17h13.2c4 0 7 1 9 3s3 4.7 3 8c0 2.5-.6 4.6-1.9 6.3a10 10 0 0 1-5.1 3.6L36.5 47h-7.7l-3.4-8.4H25.6V47Zm6.6-13.6h5.4c1.7 0 3-.4 3.9-1.3.9-.8 1.4-2 1.4-3.4 0-1.5-.5-2.6-1.4-3.4-.9-.8-2.2-1.3-3.9-1.3h-5.4Z" fill="url(#fg)"/>
  <circle cx="47" cy="16" r="3.4" fill="#a3e635"/>
</svg>
